HIERARCHY
ROOT Hips
{
 OFFSET 0.000000 0.000000 0.000000
 CHANNELS 6 Xposition Yposition Zposition Yrotation Xrotation Zrotation
 JOINT Chest
 {
  OFFSET 0.000000 12.953391 -0.028419
  CHANNELS 3 Yrotation Xrotation Zrotation
  JOINT Chest2
  {
   OFFSET 0.000000 10.280254 0.051622
   CHANNELS 3 Yrotation Xrotation Zrotation
   JOINT Chest3
   {
    OFFSET 0.000000 9.287180 0.000000
    CHANNELS 3 Yrotation Xrotation Zrotation
    JOINT Chest4
    {
     OFFSET 0.000000 9.287180 0.000000
     CHANNELS 3 Yrotation Xrotation Zrotation
     JOINT Neck
     {
      OFFSET 0.000000 13.296264 0.000000
      CHANNELS 3 Yrotation Xrotation Zrotation
      JOINT Head
      {
       OFFSET 0.000000 8.959264 0.099003
       CHANNELS 3 Yrotation Xrotation Zrotation
       End Site
       {
        OFFSET 0.000000 17.121337 0.039303
       }
      }
     }
     JOINT RightCollar
     {
      OFFSET -3.193511 7.451388 0.000000
      CHANNELS 3 Yrotation Xrotation Zrotation
      JOINT RightShoulder
      {
       OFFSET -15.792092 0.000000 0.000000
       CHANNELS 3 Yrotation Xrotation Zrotation
       JOINT RightElbow
       {
        OFFSET -31.151839 0.000000 0.000000
        CHANNELS 3 Yrotation Xrotation Zrotation
        JOINT RightWrist
        {
         OFFSET -25.536298 0.000000 0.002321
         CHANNELS 3 Yrotation Xrotation Zrotation
         End Site
         {
          OFFSET -19.133213 0.000000 0.000000
         }
        }
       }
      }
     }
     JOINT LeftCollar
     {
      OFFSET 3.193511 7.451388 0.000000
      CHANNELS 3 Yrotation Xrotation Zrotation
      JOINT LeftShoulder
      {
       OFFSET 15.792092 0.000000 0.000000
       CHANNELS 3 Yrotation Xrotation Zrotation
       JOINT LeftElbow
       {
        OFFSET 31.151839 0.000000 0.000000
        CHANNELS 3 Yrotation Xrotation Zrotation
        JOINT LeftWrist
        {
         OFFSET 25.536298 0.000000 0.002321
         CHANNELS 3 Yrotation Xrotation Zrotation
         End Site
         {
          OFFSET 19.133213 0.000000 0.000000
         }
        }
       }
      }
     }
    }
   }
  }
 }
 JOINT RightHip
 {
  OFFSET -10.745749 0.139252 0.014209
  CHANNELS 3 Yrotation Xrotation Zrotation
  JOINT RightKnee
  {
   OFFSET 0.000000 -43.743899 -0.006071
   CHANNELS 3 Yrotation Xrotation Zrotation
   JOINT RightAnkle
   {
    OFFSET 0.000000 -43.214199 0.089931
    CHANNELS 3 Yrotation Xrotation Zrotation
    JOINT RightToe
    {
     OFFSET 0.000000 -9.699830 19.151588
     CHANNELS 3 Yrotation Xrotation Zrotation
     End Site
     {
      OFFSET 0.000000 -1.292898 4.893873
     }
    }
   }
  }
 }
 JOINT LeftHip
 {
  OFFSET 10.745749 0.139252 0.014209
  CHANNELS 3 Yrotation Xrotation Zrotation
  JOINT LeftKnee
  {
   OFFSET 0.000000 -43.743899 -0.006071
   CHANNELS 3 Yrotation Xrotation Zrotation
   JOINT LeftAnkle
   {
    OFFSET 0.000000 -43.214199 0.089931
    CHANNELS 3 Yrotation Xrotation Zrotation
    JOINT LeftToe
    {
     OFFSET 0.000000 -9.699830 19.151588
     CHANNELS 3 Yrotation Xrotation Zrotation
     End Site
     {
      OFFSET 0.000000 -1.292898 4.893873
     }
    }
   }
  }
 }
}
MOTION
Frames: 8
Frame Time: 0.016667
9.700953 97.526308 -76.168553 -176.519986 0.989251 -1.495026 0.459409 6.121305 0.438092 0.198095 2.721011 0.188353 0.198095 2.721011 0.188353 0.147704 2.040820 0.140356 1.178893 18.185700 -1.706466 2.734063 -2.355737 -3.529604 7.271906 2.544052 4.497949 11.323726 -21.878715 67.560230 30.974478 28.499904 3.753597 -2.603505 20.882967 -15.021698 0.303359 -4.667726 -10.100591 7.248377 -2.566541 -75.271492 1.111506 16.577863 -0.306030 3.226815 9.149458 -3.762578 -2.449630 10.842519 2.134531 -2.102789 10.756709 -0.278245 4.968860 -10.378921 6.754924 0.786655 -11.290989 -8.540916 2.553121 -20.234864 -1.135422 7.192126 0.270181 -0.599412 -2.867818 -4.880411 -3.566331 0.000000 0.000000 0.000000
9.595922 97.248386 -78.146540 -176.921853 0.860310 -1.677188 0.606123 6.126830 0.378232 0.263996 2.723524 0.159846 0.263998 2.723525 0.159849 0.197249 2.042716 0.118689 1.233688 18.173396 -1.562445 2.787576 -2.381891 -3.283343 7.279710 2.766032 4.595233 11.126409 -22.222923 67.623794 31.213318 28.974276 3.765681 -2.675371 21.029612 -15.421161 0.427702 -4.638472 -10.073869 8.311146 -1.941349 -75.152937 0.856188 17.818163 -0.092986 2.872724 9.643318 -4.614075 -2.427562 11.677524 2.115877 -1.835077 11.546569 -0.261200 5.133420 -10.538185 6.923721 0.959487 -12.932563 -8.764434 2.410736 -20.318656 -0.991781 6.252650 -0.148957 -0.583879 -3.839190 -5.447810 -3.620115 -0.000000 -0.000000 0.000000
9.452020 96.964416 -80.179928 -177.316870 0.691263 -1.813702 0.780286 6.137725 0.294639 0.342385 2.728366 0.120427 0.342386 2.728365 0.120430 0.256203 2.046342 0.088779 1.256036 18.149815 -1.406849 2.777915 -2.430570 -3.005351 7.267722 3.055320 4.727010 10.672825 -22.493911 67.840225 31.436343 29.336508 3.781932 -2.674399 21.103583 -15.774898 0.558263 -4.547676 -10.081918 9.194265 -1.317243 -74.953318 0.245299 18.641781 -0.062594 2.437631 9.947619 -5.038099 -2.424850 12.334261 2.002609 -1.638784 12.781029 -0.263684 5.380811 -10.700491 7.111829 1.155282 -14.763688 -9.008871 2.538523 -20.677297 -1.037477 4.854927 0.873348 -0.358833 -5.103454 -5.778042 -3.438068 0.000000 0.000000 0.000000
9.234912 96.700990 -82.300905 -177.688621 0.490774 -1.908559 0.957874 6.107779 0.208506 0.422351 2.714994 0.079910 0.422351 2.714994 0.079910 0.316349 2.036302 0.058044 1.259644 18.174317 -1.258026 2.734488 -2.390216 -2.732047 7.205522 3.338234 4.831242 10.205061 -22.530853 68.130686 31.465908 29.451600 3.781890 -2.623269 21.055000 -16.132653 0.710765 -4.491072 -10.106891 10.026231 -0.652202 -74.766705 -0.389459 19.088794 -0.093646 2.112031 10.035843 -5.135251 -2.674359 12.813379 1.694181 -1.374331 14.395792 -0.269426 5.780218 -10.564163 7.458172 1.403927 -16.975970 -9.386810 2.853719 -20.926907 -1.399686 3.385566 2.334542 0.027449 -5.995167 -5.400847 -2.569717 0.000000 -0.000000 0.000000
8.913387 96.464023 -84.546449 -178.049551 0.269598 -1.967642 1.141303 6.000763 0.135640 0.504767 2.667331 0.045420 0.504766 2.667332 0.045417 0.378309 2.000539 0.031850 1.244323 18.273217 -1.125490 2.659651 -2.211560 -2.480414 7.065736 3.604920 4.866298 9.888927 -22.197411 68.440008 31.258285 29.135568 3.726636 -2.498855 20.816712 -16.538522 0.924135 -4.537663 -10.154899 10.860237 0.164330 -74.612233 -0.998044 19.123405 -0.159647 1.972214 9.825126 -4.863197 -3.338188 13.163465 1.115760 -0.978893 16.323086 -0.306228 6.447197 -10.189425 8.023586 1.724123 -19.511802 -9.942430 3.609917 -20.944243 -2.362936 1.879941 4.120545 0.736851 -6.255897 -3.830271 -0.349523 -0.000000 0.000000 0.000000
8.518656 96.247601 -86.879583 -178.387546 0.017810 -1.984756 1.328456 5.853377 0.061031 0.588854 2.601663 0.010310 0.588853 2.601661 0.010308 0.441521 1.951257 0.005220 1.210249 18.420198 -1.000241 2.551928 -1.943680 -2.235069 6.874748 3.865866 4.871699 9.568701 -21.629061 68.811463 30.857677 28.573673 3.661628 -2.312199 20.454695 -16.939042 1.159315 -4.618255 -10.218407 11.644029 1.022563 -74.458286 -1.631259 18.782566 -0.290100 1.924549 9.402690 -4.264707 -4.254347 13.320223 0.339605 -0.508305 18.626597 -0.370975 7.302626 -9.516891 8.716180 2.131282 -22.427756 -10.644723 4.556237 -20.839846 -3.640619 0.368464 6.378235 1.608558 -5.906656 -1.525324 2.471225 -0.000000 -0.000000 -0.000000
8.110023 96.060567 -89.221565 -178.649567 -0.286861 -1.946156 1.488696 5.729017 -0.040680 0.661294 2.546091 -0.036456 0.661294 2.546091 -0.036456 0.496041 1.909531 -0.030094 1.172381 18.595555 -0.872525 2.436403 -1.622948 -1.983722 6.680968 4.078134 4.907710 9.005036 -21.070828 69.306125 30.210655 28.188937 3.681085 -2.143832 20.118157 -17.240774 1.314167 -4.621329 -10.259963 12.341912 1.637831 -74.331376 -2.101945 18.213431 -0.428375 1.907077 8.998893 -3.565386 -5.162133 13.119232 -0.507337 0.008498 21.440642 -0.389977 8.134742 -8.064997 9.454063 2.673763 -26.085859 -11.505159 4.853118 -20.605948 -4.509352 -0.846119 8.462125 2.174770 -4.937129 0.540377 4.186050 0.000000 0.000000 0.000000
7.701336 95.894196 -91.566637 -178.805244 -0.675511 -1.842246 1.612291 5.651092 -0.185710 0.717946 2.510951 -0.102088 0.717949 2.510957 -0.102088 0.538797 1.883106 -0.079505 1.134785 18.804358 -0.726695 2.315583 -1.240225 -1.699092 6.487420 4.221021 5.015407 7.946817 -20.623018 69.992569 29.300009 28.224281 3.894219 -1.990814 19.824724 -17.454920 1.333289 -4.450437 -10.270136 13.040161 1.853235 -74.256820 -2.345371 17.383979 -0.578324 1.899922 8.668187 -2.739740 -6.111312 12.504724 -1.440055 0.794843 24.898967 -0.263262 8.895337 -5.533325 10.235756 3.731992 -31.807837 -12.823771 3.820573 -20.276125 -4.532769 -1.579062 10.056266 2.206142 -3.364684 2.183910 3.696666 0.000000 -0.000000 0.000000
